<?xml version="1.0" standalone="no"?>
<!DOCTYPE svg PUBLIC "-//W3C//DTD SVG 20010904//EN"
 "http://www.w3.org/TR/2001/REC-SVG-20010904/DTD/svg10.dtd">
<svg version="1.0" xmlns="http://www.w3.org/2000/svg"
 width="160.000000pt" height="160.000000pt" viewBox="0 0 160.000000 160.000000"
 preserveAspectRatio="xMidYMid meet">
<metadata>
Created by potrace 1.11, written by Peter Selinger 2001-2013
</metadata>
<g transform="translate(0.000000,160.000000) scale(0.100000,-0.100000)"
fill="#000000" stroke="none">
<path d="M579 1427 c-13 -5 -55 -18 -94 -28 -79 -22 -113 -37 -135 -59 -43
-43 -208 -140 -239 -140 -15 0 -14 -20 3 -39 8 -9 32 -56 53 -106 22 -50 46
-91 54 -91 8 -1 16 -3 19 -4 19 -7 39 -7 34 1 -3 5 0 9 5 9 6 0 11 -4 11 -8 0
-5 6 -9 13 -10 21 -1 70 -13 79 -18 9 -6 7 -95 -8 -551 l-6 -192 43 2 c24 1
48 7 52 12 5 6 7 1 4 -12 -3 -15 -1 -20 9 -16 7 2 11 10 8 17 -3 7 5 12 20 12
14 0 22 -4 19 -10 -4 -5 -1 -6 8 0 20 12 39 14 39 3 0 -5 5 -9 11 -9 5 0 7 5
4 10 -3 6 4 10 16 10 16 0 20 -5 16 -20 -3 -11 -1 -18 4 -14 5 3 9 11 9 19 0
9 17 13 60 14 34 0 59 -3 56 -8 -3 -4 1 -8 9 -8 8 0 12 3 10 7 -2 4 9 7 25 8
17 0 30 -5 30 -11 0 -7 4 -6 11 3 8 11 12 12 16 3 2 -7 9 -13 14 -13 6 0 8 3
6 8 -3 4 20 6 51 5 32 0 57 -2 57 -3 0 -1 23 -4 50 -6 28 -2 58 -6 68 -8 9 -2
17 0 17 6 0 5 6 6 13 1 6 -4 20 -6 30 -5 9 2 17 -3 17 -10 0 -9 3 -9 10 2 8
12 10 10 11 -10 1 -17 3 -19 6 -8 3 12 14 18 33 18 16 0 32 5 35 10 4 6 12 7
18 4 7 -4 8 -3 4 2 -5 5 -13 10 -18 10 -5 1 -12 2 -16 3 -5 0 -8 28 -8 61 0
43 4 64 15 71 13 9 12 10 -2 5 -10 -3 -20 -1 -23 4 -4 6 1 10 9 10 8 0 17 4
20 9 4 5 -2 7 -12 5 -13 -4 -17 1 -17 25 -1 17 3 31 8 31 5 0 3 8 -4 17 -12
15 -12 16 6 10 17 -6 18 -5 5 5 -19 16 -25 78 -8 78 8 0 9 3 3 8 -6 4 -11 18
-12 32 0 14 -3 37 -6 52 -6 28 14 55 33 43 5 -3 10 -4 10 -1 0 3 -10 10 -21
17 -13 7 -19 7 -15 1 3 -6 1 -14 -5 -18 -9 -5 -10 2 -6 24 4 18 3 32 -1 32 -4
0 -8 23 -7 50 0 28 -3 50 -7 50 -4 0 -5 10 -3 21 3 12 1 27 -3 33 -15 24 -9
38 21 51 26 11 36 10 64 -3 17 -8 30 -20 26 -25 -3 -5 4 -4 14 2 11 6 24 7 28
3 3 -4 6 -2 4 3 -4 14 22 65 33 65 5 0 7 4 4 9 -3 5 4 20 15 35 11 14 17 26
12 26 -4 1 5 8 20 16 26 14 27 17 14 37 -12 19 -12 24 -1 35 8 7 14 17 14 22
0 11 -54 49 -155 108 -44 25 -91 57 -105 69 -14 13 -47 30 -75 39 -61 19 -68
21 -77 23 -5 1 -26 8 -48 17 -38 15 -42 15 -84 -6 -84 -40 -226 -38 -288 4
-27 18 -39 21 -59 13z m874 -331 c3 -8 0 -17 -8 -19 -11 -5 -13 6 -6 31 2 6 9
0 14 -12z"/>
<path d="M1450 1050 c-9 -6 -10 -10 -3 -10 6 0 15 5 18 10 8 12 4 12 -15 0z"/>
<path d="M1428 1023 c7 -3 16 -2 19 1 4 3 -2 6 -13 5 -11 0 -14 -3 -6 -6z"/>
<path d="M1405 1000 c-3 -6 1 -7 9 -4 18 7 21 14 7 14 -6 0 -13 -4 -16 -10z"/>
<path d="M1435 989 c-4 -6 -5 -12 -2 -15 2 -3 7 2 10 11 7 17 1 20 -8 4z"/>
<path d="M1385 960 c-13 -22 -13 -48 0 -46 8 1 18 6 22 10 4 4 4 7 -2 6 -21
-5 -25 1 -15 20 11 20 7 29 -5 10z"/>
<path d="M1233 924 c4 -4 -1 -12 -10 -19 -13 -9 -13 -14 -3 -20 9 -6 11 -4 5
5 -6 10 -4 12 9 7 9 -4 15 -3 11 2 -3 5 0 11 7 13 7 3 4 7 -7 12 -11 4 -16 4
-12 0z"/>
<path d="M1226 838 c3 -5 10 -6 15 -3 13 9 11 12 -6 12 -8 0 -12 -4 -9 -9z"/>
<path d="M1240 642 c0 -5 7 -9 15 -9 8 0 12 4 9 9 -3 4 -9 8 -15 8 -5 0 -9 -4
-9 -8z"/>
<path d="M1253 575 c0 -8 4 -12 9 -9 5 3 6 10 3 15 -9 13 -12 11 -12 -6z"/>
<path d="M1245 500 c-3 -6 1 -7 9 -4 18 7 21 14 7 14 -6 0 -13 -4 -16 -10z"/>
<path d="M1251 411 c-8 -5 -9 -11 -3 -15 5 -3 12 1 16 9 6 17 6 18 -13 6z"/>
<path d="M1256 302 c-3 -5 1 -9 9 -9 8 0 12 4 9 9 -3 4 -7 8 -9 8 -2 0 -6 -4
-9 -8z"/>
<path d="M1270 230 c-9 -6 -10 -10 -3 -10 6 0 15 5 18 10 8 12 4 12 -15 0z"/>
<path d="M797 193 c-10 -9 -9 -23 1 -23 5 0 9 7 9 15 0 17 -1 18 -10 8z"/>
<path d="M540 180 c-9 -6 -10 -10 -3 -10 6 0 15 5 18 10 8 12 4 12 -15 0z"/>
<path d="M666 178 c3 -5 10 -6 15 -3 13 9 11 12 -6 12 -8 0 -12 -4 -9 -9z"/>
<path d="M700 186 c0 -2 7 -6 15 -10 8 -3 15 -1 15 4 0 6 -7 10 -15 10 -8 0
-15 -2 -15 -4z"/>
<path d="M967 179 c7 -7 15 -10 18 -7 3 3 -2 9 -12 12 -14 6 -15 5 -6 -5z"/>
<path d="M435 171 c-3 -5 -2 -12 3 -15 5 -3 9 1 9 9 0 17 -3 19 -12 6z"/>
<path d="M1013 165 c0 -8 4 -12 9 -9 5 3 6 10 3 15 -9 13 -12 11 -12 -6z"/>
<path d="M1105 160 c-3 -6 1 -7 9 -4 18 7 21 14 7 14 -6 0 -13 -4 -16 -10z"/>
</g>
</svg>
