<?xml version="1.0" encoding="utf-8"?>
<!DOCTYPE svg PUBLIC "-//W3C//DTD SVG 1.1//EN" "http://www.w3.org/Graphics/SVG/1.1/DTD/svg11.dtd">
<svg version="1.1" id="lizzthabet_xA0_Image_1_" xmlns="http://www.w3.org/2000/svg" xmlns:xlink="http://www.w3.org/1999/xlink"
	 x="0px" y="0px" width="155.2px" height="25.3px" viewBox="0 0 155.2 25.3" enable-background="new 0 0 155.2 25.3"
	 xml:space="preserve">
<g>
	<path fill="#0D0D0D" d="M117,0.6c0.5-0.2,0.8,0.2,1.2,0.3c0.7,0.2,1.4,0.3,2,0.8c0.6,0.5,1,1.1,1.1,1.8c0.2,0.7,0.4,1.4,0.6,2
		c0.2,0.8-0.1,1.6-0.1,2.4c0,0.3,0,0.4,0.3,0.5c0.9,0.3,1.7,0.8,2.5,1.2c0.3,0.1,0.5,0.4,0.6,0.7c0.4,0.8,0.7,1.6,0.7,2.5
		c0,1-0.6,1.9-1.5,2.5c-1.8,1.2-3.7,2.2-5.6,3.1c-0.4,0.2-0.6,0.4-0.5,1c0.1,1-0.4,1.8-1.1,2.5c-0.1,0.1-0.3,0.2-0.4,0
		c-0.3-0.3-0.6-0.5-1-0.6c-0.6-0.2-0.9-0.6-0.8-1.3c0.1-0.6-0.1-1.2-0.1-1.9c0-0.8-0.1-1.5-0.2-2.3c-0.2-2-0.8-4-0.7-6.1
		c0.1-2.1,0.1-4.2,0.6-6.3c0.1-0.6,0.1-1.2,0.3-1.8c0.2-0.4,0.6-0.3,0.8-0.5C116.1,0.8,116.5,0.5,117,0.6z M122.6,12
		c0-0.6-0.1-1.1-0.6-1.4c-0.6-0.3-1.2-0.5-1.9-0.4c-0.4,0-0.9-0.1-1.4-0.2c-0.1,0-0.2-0.1-0.2-0.3c0.1-0.5-0.3-1.2,0.3-1.7
		c0,0,0-0.2,0-0.2c0.3-0.9,0.5-1.7,0.3-2.7c-0.1-0.7-0.4-1.5-1-2c-0.5-0.4-0.7-0.3-0.8,0.3c-0.2,1.3-0.3,2.6-0.4,3.9
		c-0.1,0.7,0,1.4,0,2c0.1,1.6,0.6,3.2,0.7,4.9c0,0.3,0.1,0.6,0.6,0.4c1.3-0.5,2.5-1.4,3.7-1.9C122.5,12.7,122.8,12.5,122.6,12z"/>
	<path fill="#0D0D0D" d="M86.7,11.5c-0.1,1.7,0,3.4,0,5c0,0.7,0.1,1.4,0.1,2.1c0.1,0.7-0.5,1.3-0.9,1.9c-0.1,0.2-0.4,0.1-0.6,0
		c-0.5-0.2-0.9-0.5-1.4-0.6c-0.3-0.1-0.4-0.4-0.4-0.7c-0.2-1.6-0.2-3.1-0.3-4.7c0-1.6,0-3.2,0-4.9c0-1.6,0.1-3.3,0.2-4.9
		c0-0.3,0.1-0.6,0.1-1c0-0.7,0.4-1,1.1-0.9c0.5,0.1,1.1,0.3,1.6,0.5c0.5,0.2,0.5,0.7,0.4,1.1c-0.1,1.7,0,3.5-0.1,5.2
		c0,0.1,0,0.2,0.1,0.3c0.1,0.1,0.2,0,0.3-0.1c0.3-0.3,0.6-0.3,0.9-0.3c1.3,0.1,2.5-0.6,3.7-0.9c0.6-0.2,0.5-0.8,0.5-1.2
		c0-0.6,0.1-1.1,0.1-1.7c0.1-0.8,0.1-1.6,0.1-2.3c0-0.4,0.1-0.7,0.1-1.1c0.1-0.7,0.5-0.7,1-0.7c0.6,0.1,1.2,0.4,1.7,0.7
		c0.4,0.2,0.2,0.7,0.3,1.1c0.1,2.3-0.2,4.6-0.4,6.8c-0.1,1.6-0.3,3.1-0.2,4.7c0.1,1.4-0.1,2.7-0.9,3.9c-0.3,0.6-0.5,0.6-1.1,0.3
		c-0.2-0.1-0.4-0.2-0.5-0.3c-0.5-0.3-1.2-0.4-0.8-1.4c0.2-0.5,0-1.3,0-1.9c0-1,0.1-2,0.1-3c0-0.4,0-0.6-0.5-0.4
		c-0.8,0.3-1.6,0.4-2.4,0.2C88,12.3,87.3,12.1,86.7,11.5z"/>
	<path fill="#0D0D0D" d="M109.9,8.7c0.1,1.6,0.2,3.3,0.4,4.9c0.1,1,0.4,2.1,0.4,3.1c0,0.8,0,1.7-0.7,2.3c-0.2,0.2-0.1,0.5-0.4,0.6
		c-0.5,0.3-1.8,0-2.1-0.4c-0.1-0.1-0.1-0.3-0.1-0.5c0.1-1.8-0.3-3.5-0.6-5.3c0-0.2,0.3-0.5-0.1-0.7c-0.3-0.1-0.7,0-1,0.1
		c-0.8,0.2-1.6,0.2-2.4-0.3c-0.4-0.3-0.6-0.2-0.7,0.3c-0.5,1.3-0.9,2.7-1.2,4c-0.1,0.4-0.2,0.7-0.4,1c-0.3,0.6-1.7,0.7-2.2,0.3
		c-0.2-0.2-0.2-0.4-0.2-0.7c0.1-1.7,0.6-3.3,1.1-5c0.4-1.5,1-2.9,1.4-4.3c0.4-1.7,0.9-3.3,1.6-4.8c0.4-0.9,1.1-1.6,2-2
		c0.5-0.3,0.9,0.1,1.4,0.2c0.6,0.2,1.3,0.4,1.9,0.6c0.3,0.1,0.4,0.2,0.5,0.4c0.6,1,0.7,2.2,0.9,3.3C109.8,6.7,109.8,7.7,109.9,8.7z
		 M106.6,8.2c0.1-0.4-0.2-0.9-0.2-1.4c0-0.6-0.2-1.2-0.4-1.8c-0.1-0.3-0.2-0.4-0.5-0.1c-0.2,0.2-0.3,0.6-0.8,0.7
		c-0.1,0-0.2,0.1-0.1,0.2c0.4,0.2,0.1,0.5,0.1,0.7c-0.3,1-0.6,1.9-0.9,2.8c-0.2,0.6-0.1,0.7,0.5,0.6c0.4-0.1,0.8-0.2,1.2-0.2
		c0.3,0,0.7,0,1-0.2c0.3-0.2-0.1-0.6,0-0.9C106.6,8.5,106.6,8.4,106.6,8.2z"/>
	<path fill="#0D0D0D" d="M132.6,13.7c0.2,0.5,0.5,0.9,0.5,1.5c0,0.8,0.8,0.7,1.2,0.8c1.2,0.2,2.4,0.3,3.7,0.4c0.5,0,0.7,0.4,1.1,0.6
		c0.1,0,0,0.1,0,0.2c-0.3,0.3-0.3,0.7-0.5,1c0,0,0,0.2,0,0.2c-0.6,0-0.9,0.6-1.4,0.6c-0.7,0-1.4,0-2.1,0.2c0,0-0.1,0-0.1,0
		c-1-0.5-2.2-0.3-3.1-1c-0.4-0.3-0.9-0.6-1-1.2c-0.2-1.1-0.7-2.1-1.1-3.1c-0.7-1.6-1.3-3.2-1.2-5c0-0.9,0.2-1.8,0.5-2.6
		c0.1-0.2-0.1-0.4-0.1-0.6c0.1-1.3,1-2,2.4-2c0.5,0,1.1,0,1.6-0.1c1.8-0.1,3.5,0,5.1,1c0.3,0.2,0.8,0.2,1.1,0.4
		c0.3,0.3,0.5,0.6,0.1,0.9c-0.3,0.2-0.1,0.6-0.4,0.9c-0.7,0.5-1.4,0.5-2.2,0.4c-1.5-0.3-3-0.3-4.6-0.2c-0.2,0-0.4,0-0.4,0.3
		c-0.1,0.9-0.3,1.9-0.3,2.8c0,0.4,0.2,0.3,0.4,0.2c0.9-0.2,1.9-0.6,2.8-0.4c1,0.1,1.9-0.1,2.9,0.1c0.6,0.1,1.1,0.4,1.6,0.6
		c0.3,0.1,0.7,0.3,1,0.4c0.3,0.1,0.5,0.2,0.2,0.5c-0.1,0.2-0.2,0.4-0.3,0.6c-0.2,0.5-0.5,0.8-1.1,1c-1.5,0.4-3,0.1-4.4,0.3
		C133.9,13.3,133.3,13.5,132.6,13.7z"/>
	<path fill="#0D0D0D" d="M34.2,10.9c-0.9-0.4-1.8-0.3-2.7-0.3c-0.8,0-1.4-0.4-2-0.9c-0.2-0.1-0.4-0.5,0-0.8c0.2-0.1,0.2-0.4,0-0.6
		c-0.3-0.5-0.1-0.7,0.4-1c0.7-0.3,1.4-0.1,2.1,0c1,0.1,2,0,2.9,0.7c0.6,0.4,1.3,0.5,1.9,0.7c1.2,0.4,1.4,0.9,1.2,2.3
		c-0.3,1.9-1.6,3.1-2.6,4.5c-0.7,1-1.3,2-1.6,3.2c-0.1,0.3-0.1,0.4,0.3,0.5c1.3,0.2,2.6,0,3.9,0.1c1,0.1,2-0.1,3,0.2
		c0.3,0.1,0.6,0.2,0.8,0.4c0.1,0.1,0.3,0.2,0.2,0.3c-0.2,0.2-0.3,0.5-0.4,0.8c-0.4,0.8-1.3,0.9-1.9,1c-0.9,0.2-1.7,0.5-2.7,0.5
		c-0.7,0-1.5,0.1-2.1-0.1c-1-0.4-2-0.4-2.9-0.9c-0.2-0.1-0.5-0.2-0.8-0.3c-0.4-0.1-0.6-0.4-0.7-0.9c-0.3-2,0.6-3.7,1.1-5.6
		c0.3-0.9,0.9-1.7,1.5-2.4C33.6,11.9,33.9,11.4,34.2,10.9z"/>
	<path fill="#0D0D0D" d="M50.3,8.4c-0.9,0.1-1.7,0.3-2.5,0.3c-0.8,0-1.5-0.2-2.2-0.5c-0.4-0.2-0.5-0.4-0.5-0.9
		c0.1-1.6,0.3-1.7,2-1.7c1,0,2.1,0,3.1-0.1c0.8,0,1.5,0.1,2.2,0.4c0.4,0.2,0.9,0.3,1.4,0.4c0.8,0,1,0.4,0.9,1.1
		c-0.4,2.2-1.4,4.2-2.4,6.2c-0.5,1.1-1.3,2-1.9,3.1c-0.3,0.5-0.2,0.5,0.3,0.6c1,0.1,2,0,3,0.2c0.7,0.1,1.4,0.5,2,0.9
		c0.2,0.1,0.3,0.3,0.3,0.7c0,0.3-0.2,0.6,0,1c0.1,0.2-0.2,0.3-0.4,0.3c-2,0-4.1,0.3-6.1,0c-0.2,0-0.4,0-0.6,0
		c-0.9,0.1-1.7-0.2-2.5-0.8c-0.3-0.2-0.4-0.5-0.2-0.9c0.1-0.3,0.2-0.5,0.1-0.8c-0.1-0.1-0.1-0.3,0-0.5c0.5-1.1,1-2.2,1.7-3.2
		c0.8-1.2,1.6-2.5,2.4-3.8c0.3-0.5,0.5-1.1,0.6-1.7C51.1,8.1,50.5,8.6,50.3,8.4z"/>
	<path fill="#0D0D0D" d="M145.5,6.1c-0.6,0.1-1.3,0.2-2.1,0c-0.5-0.1-0.8-0.3-0.9-0.8c-0.2-1.1,0-1.9,1.3-2.3
		c0.6-0.1,1.1-0.4,1.6-0.5c1.2-0.2,2.4-0.2,3.5-0.3c0.2,0,0.3,0,0.4-0.1c0.5-0.3,1.1-0.2,1.6,0.1c0.5,0.3,1.1,0.6,1.7,0.8
		c0.2,0.1,0.4,0.3,0.2,0.3c-0.4,0.2-0.3,0.6-0.5,0.9c-0.5,0.8-1.4,1-2.2,1.1c-0.6,0.1-0.8,0.3-0.9,0.9c-0.2,1.4-0.1,2.9,0.1,4.2
		c0.2,1.6,0.6,3.1,0.8,4.7c0.2,1.5,0.4,3-0.4,4.4c-0.5,1-0.9,1-1.9,0.5c-0.2-0.1-0.5-0.3-0.7-0.4c-0.3-0.2-0.4-0.4-0.3-0.8
		c0.2-1.2,0-2.4-0.2-3.5c-0.4-2.2-0.9-4.3-0.9-6.6c0-0.9,0-1.7,0.1-2.6C146.1,6,145.8,6.1,145.5,6.1z"/>
	<path fill="#0D0D0D" d="M75.9,2.9c0.7-0.1,1.7,0.3,2.7,0.4c0.5,0.1,0.9,0.1,1.4,0.2c0.3,0.1,0.4,0.2,0.3,0.4
		C80,4.4,80.1,4.9,80,5.3c-0.1,0.4-0.3,0.6-0.7,0.6c-1,0.1-2,0.1-3.1,0.1c-0.8,0-1.6,0.1-2.4,0.2c-0.4,0.1-0.4,0.2-0.4,0.6
		c0,1.4,0.3,2.8,0.4,4.3c0.3,2.6,0.1,5.1,0.1,7.7c0,0.6-0.2,1.1-0.3,1.7c-0.1,0.4-0.3,0.8-0.8,0.8c-0.5,0-1.1,0-1.4-0.5
		c-0.3-0.3-0.2-0.8-0.4-1.1c-0.3-0.8,0-1.6,0-2.3c0-1.2-0.1-2.3,0-3.5c0.1-2-0.3-4-0.6-6c0-0.3-0.2-0.5-0.6-0.4
		c-0.9,0.2-1.7-0.8-1.6-1.6c0-1,0.6-1.4,1.3-1.8C71.4,3.2,73.4,3,75.9,2.9z"/>
	<path fill="#0D0D0D" d="M6.2,4.8C7,5,7.7,5.3,8.4,5.4C9.2,5.5,9,5.9,9,6.2c0.1,1.4,0,2.7,0.2,4.1c0.1,1.4,0.1,2.9,0.3,4.3
		c0.2,1.4,0.2,2.9,0.6,4.3c0.1,0.4,0.2,0.7,0.8,0.5c0.9-0.2,1.9-0.5,2.8-0.6c0.1,0,0.2,0,0.2-0.1c0.6-0.5,1.1-0.2,1.7,0
		c0.8,0.2,0.6,0.7,0.6,1.2c-0.1,0.5-0.2,0.8-0.8,0.9c-0.9,0.1-1.6,0.8-2.5,1c-1.1,0.3-2.2,0.6-3.4,0.5c-0.9-0.1-1.4-0.6-1.9-1.1
		c-0.3-0.3-0.4-0.8-0.5-1.3c-0.3-1.1-0.6-2.2-0.6-3.4c-0.1-1.5-0.2-3-0.3-4.6C6.1,10.9,5.9,9.8,6,8.8C6.1,7.4,5.7,6.1,6.2,4.8z"/>
	<path fill="#0D0D0D" d="M20,13.5c0-1.5,0.2-3,0.2-4.6c0-1.2,0.1-2.4,0.2-3.6c0-0.3,0.2-0.5,0.6-0.5c0.7,0,1.4,0.2,2.1,0.4
		c0.3,0.1,0.4,0.3,0.3,0.6c-0.1,0.9-0.1,1.7-0.1,2.6c0,1.7-0.3,3.3-0.1,5c0.1,1.2,0.1,2.4,0.2,3.6c0.2,1.2,0.5,2.3,0.8,3.4
		c0.2,0.9,0.6,1.7,0.5,2.6c-0.1,0.6-0.3,1.1-0.7,1.6c-0.1,0.2-0.4,0.2-0.7,0c-0.3-0.2-0.7-0.4-1.1-0.6c-0.7-0.2-0.8-0.9-0.9-1.5
		c-0.3-1.6-0.7-3.1-0.9-4.7C20.1,16.3,20,14.9,20,13.5z"/>
</g>
</svg>
